<?xml version="1.0" standalone="no"?>
<!DOCTYPE svg PUBLIC "-//W3C//DTD SVG 20010904//EN"
 "http://www.w3.org/TR/2001/REC-SVG-20010904/DTD/svg10.dtd">
<svg version="1.0" xmlns="http://www.w3.org/2000/svg"
 width="256.000000pt" height="256.000000pt" viewBox="0 0 256.000000 256.000000"
 preserveAspectRatio="xMidYMid meet">
<metadata>
Created by potrace 1.11, written by Peter Selinger 2001-2013
</metadata>
<g transform="translate(0.000000,256.000000) scale(0.100000,-0.100000)"
fill="#000000" stroke="none">
<path d="M1977 1740 c-93 -19 -207 -67 -244 -102 -31 -29 -39 -73 -19 -103 9
-14 21 -25 27 -25 6 0 51 20 100 44 263 132 517 84 574 -108 17 -56 20 -169 6
-242 -27 -140 -102 -249 -208 -300 -46 -23 -72 -28 -161 -32 l-105 -5 6 70
c12 129 64 393 103 524 13 46 -104 71 -145 30 -26 -26 -72 -223 -116 -497 -4
-25 -10 -32 -28 -31 -12 0 -71 -17 -132 -38 -243 -83 -431 -47 -507 99 -27 50
-37 212 -19 297 16 77 61 167 106 213 87 88 220 112 273 50 23 -26 24 -33 19
-109 -7 -88 -4 -99 35 -114 72 -27 123 36 122 154 -1 137 -75 217 -213 232
-230 24 -445 -149 -505 -407 -18 -73 -21 -248 -6 -299 9 -34 8 -37 -48 -92
-60 -60 -94 -76 -138 -65 -64 17 -68 132 -13 394 43 201 46 232 23 249 -27 20
-108 17 -126 -4 -9 -10 -25 -65 -37 -123 -73 -348 -155 -504 -274 -517 -56 -7
-97 14 -128 64 -19 31 -24 55 -27 133 -7 162 44 307 141 404 113 114 262 150
453 110 69 -14 78 -14 100 1 56 37 57 106 2 124 -161 51 -375 36 -523 -38
-152 -76 -256 -198 -311 -367 -26 -80 -29 -102 -29 -224 0 -128 2 -138 28
-192 35 -72 95 -124 166 -145 129 -37 254 18 317 139 l17 33 12 -43 c30 -99
106 -150 211 -139 69 7 127 40 191 111 l50 55 44 -45 c76 -78 203 -124 340
-124 118 0 312 47 372 90 l27 21 0 -28 c0 -58 31 -71 179 -80 205 -11 370 44
486 161 33 34 72 86 88 116 l27 55 0 236 0 236 -29 39 c-42 57 -79 89 -138
119 -112 55 -260 68 -416 35z"/>
</g>
</svg>
